HIERARCHY
ROOT Hips
{
  OFFSET 48.3107 85.4897 -1.35933
  CHANNELS 6 Xposition Yposition Zposition Zrotation Xrotation Yrotation
  JOINT spine
  {
    OFFSET 0 6.3926 0.367606
    CHANNELS 3 Zrotation Xrotation Yrotation
    JOINT spine1
    {
      OFFSET 0 9.17611 0
      CHANNELS 3 Zrotation Xrotation Yrotation
      JOINT spine2
      {
        OFFSET 0 8.79238 0
        CHANNELS 3 Zrotation Xrotation Yrotation
        JOINT Neck
        {
          OFFSET 0 22.5737 1.07624
          CHANNELS 3 Zrotation Xrotation Yrotation
          JOINT Head
          {
            OFFSET 0 6.82011 0
            CHANNELS 3 Zrotation Xrotation Yrotation
            End Site
            {
              OFFSET 0 16.5085 -5.44427
            }
          }
        }
        JOINT RightShoulder
        {
          OFFSET -3.70221 9.49509 -0.515508
          CHANNELS 3 Zrotation Xrotation Yrotation
          JOINT RightArm
          {
            OFFSET 0 12.4537 0
            CHANNELS 3 Zrotation Xrotation Yrotation
            JOINT RightArmRoll
            {
              OFFSET 0 6.28686 0
              CHANNELS 3 Zrotation Xrotation Yrotation
              JOINT RightForeArm
              {
                OFFSET 0 18.3114 0
                CHANNELS 3 Zrotation Xrotation Yrotation
                JOINT RightForeArmRoll
                {
                  OFFSET 0 7.05483 0
                  CHANNELS 3 Zrotation Xrotation Yrotation
                  JOINT RightHand
                  {
                    OFFSET 0 14.1575 0
                    CHANNELS 3 Zrotation Xrotation Yrotation
                    End Site
                    {
                      OFFSET 0 0 0
                    }
                  }
                }
              }
            }
          }
        }
        JOINT LeftShoulder
        {
          OFFSET 3.70221 9.49509 -0.515508
          CHANNELS 3 Zrotation Xrotation Yrotation
          JOINT LeftArm
          {
            OFFSET 0 12.4537 0
            CHANNELS 3 Zrotation Xrotation Yrotation
            JOINT LeftArmRoll
            {
              OFFSET 0 6.28686 0
              CHANNELS 3 Zrotation Xrotation Yrotation
              JOINT LeftForeArm
              {
                OFFSET 0 18.3114 0
                CHANNELS 3 Zrotation Xrotation Yrotation
                JOINT LeftForeArmRoll
                {
                  OFFSET 0 7.05482 0
                  CHANNELS 3 Zrotation Xrotation Yrotation
                  JOINT LeftHand
                  {
                    OFFSET 0 14.1575 0
                    CHANNELS 3 Zrotation Xrotation Yrotation
                    End Site
                    {
                      OFFSET 0 0 0
                    }
                  }
                }
              }
            }
          }
        }
      }
    }
  }
  JOINT RightUpLeg
  {
    OFFSET -5.66616 -1.03903 -0.87161
    CHANNELS 3 Zrotation Xrotation Yrotation
    JOINT RightUpLegRoll
    {
      OFFSET 0 16.6005 0
      CHANNELS 3 Zrotation Xrotation Yrotation
      JOINT RightLeg
      {
        OFFSET 0 -20.5572 0
        CHANNELS 3 Zrotation Xrotation Yrotation
        JOINT RightLegRoll
        {
          OFFSET 0 20.6244 0
          CHANNELS 3 Zrotation Xrotation Yrotation
          JOINT RightFoot
          {
            OFFSET 0 17.1664 0
            CHANNELS 3 Zrotation Xrotation Yrotation
            JOINT RightToeBase
            {
              OFFSET 0 14.3502 0
              CHANNELS 3 Zrotation Xrotation Yrotation
              End Site
              {
                OFFSET 0.00608252 6.94971 -0.801061
              }
            }
          }
        }
      }
    }
  }
  JOINT LeftUpLeg
  {
    OFFSET 5.66616 -1.03903 -0.87161
    CHANNELS 3 Zrotation Xrotation Yrotation
    JOINT LeftUpLegRoll
    {
      OFFSET 0 16.6006 0
      CHANNELS 3 Zrotation Xrotation Yrotation
      JOINT LeftLeg
      {
        OFFSET 0 20.5571 0
        CHANNELS 3 Zrotation Xrotation Yrotation
        JOINT LeftLegRoll
        {
          OFFSET 0 20.8151 0
          CHANNELS 3 Zrotation Xrotation Yrotation
          JOINT LeftFoot
          {
            OFFSET 0 16.9757 0
            CHANNELS 3 Zrotation Xrotation Yrotation
            JOINT LeftToeBase
            {
              OFFSET 0 14.3502 0
              CHANNELS 3 Zrotation Xrotation Yrotation
              End Site
              {
                OFFSET -0.0272592 6.94971 -0.80106
              }
            }
          }
        }
      }
    }
  }
}
MOTION
Frames: 10
Frame Time: 0.00208333
43.385 84.7906 -3.03216 2.18409 -0.275377 23.4601 0.0680011 -1.33208 -0.30078 0.13215 1.33832 -0.60851 0.139546 2.98335 -0.611064 17.1891 8.03949 19.5872 -28.968 9.07074 24.6609 21.7867 -24.201 -23.8792 72.2654 34.6762 26.2283 -9.87315e-008 9.28793e-008 -3.61156e-006 174.117 85.42 -175.122 1.30744e-006 1.28815e-007 -3.0029 8.0289 -4.95141 0.697683 -25.2682 -5.68364 1.07258 -108.364 24.4805 7.55904 -1.61681e-005 -5.67665e-006 3.51474e-006 -12.0699 23.734 3.38332 1.18805e-005 -1.96975e-006 3.00002 -8.02886 -4.95142 -0.697668 173.246 5.43879 3.14572 180 7.01525e-015 178.833 176.917 21.7008 179.759 -7.92036e-007 2.66559e-006 0.614466 -27.6975 75.6334 29.2653 8.17024 25.9897 -2.45734 -174.87 8.18177 -0.411969 4.54188e-006 -4.6773e-006 -0.97386 -2.65966 -12.73 0.375164 -3.98429e-006 -1.802e-007 -0.029213 16.3824 66.971 -18.7489 -8.1365 25.2327 3.48765 
43.4194 84.7729 -3.01394 2.17752 -0.263235 23.6169 0.064396 -1.3398 -0.293983 0.125149 1.32288 -0.594422 0.13237 2.96792 -0.596853 17.1831 7.99932 19.5648 -28.9545 9.0832 24.6337 21.6853 -24.3205 -24.0629 72.0585 34.9111 27.0654 -9.87315e-008 9.28793e-008 -3.61156e-006 173.179 85.4023 -174.008 1.30744e-006 1.28815e-007 -3.0029 8.0289 -4.95141 0.697683 -25.3297 -5.73863 1.14111 -108.261 24.4206 7.31255 -1.61681e-005 -5.67665e-006 3.51474e-006 -12.0111 23.3077 3.31022 1.18805e-005 -1.96975e-006 3.00002 -8.02886 -4.95142 -0.697668 173.253 5.41375 3.13983 180 7.01525e-015 178.832 176.933 21.7528 179.757 -7.92036e-007 2.66559e-006 0.619648 -27.7791 75.677 29.3519 8.17071 26.0036 -2.43857 -174.893 8.23018 -0.388651 4.54188e-006 -4.6773e-006 -0.97314 -2.64674 -12.7724 0.377865 -3.98429e-006 -1.802e-007 -0.029789 16.3791 66.9754 -18.7522 -8.1365 25.2327 3.48765 
43.4579 84.7732 -2.9884 2.17095 -0.247287 23.7752 0.0602658 -1.34826 -0.28708 0.117047 1.30598 -0.580097 0.12409 2.95102 -0.582387 17.1764 7.96445 19.54 -28.9407 9.0895 24.6027 21.5903 -24.4368 -24.2414 71.8368 35.1413 27.9352 -9.87315e-008 9.28793e-008 -3.61156e-006 172.225 85.3789 -172.87 1.30744e-006 1.28815e-007 -3.0029 8.0289 -4.95141 0.697683 -25.3976 -5.78928 1.20536 -108.148 24.3597 7.07005 -1.61681e-005 -5.67665e-006 3.51474e-006 -11.9566 22.902 3.24117 1.18805e-005 -1.96975e-006 3.00002 -8.02886 -4.95142 -0.697668 173.259 5.39357 3.13318 180 7.01525e-015 178.831 176.952 21.809 179.755 -7.92036e-007 2.66559e-006 0.62504 -27.8631 75.7214 29.4409 8.17122 26.0183 -2.41888 -174.919 8.2797 -0.363341 4.54188e-006 -4.6773e-006 -0.972379 -2.63353 -12.8105 0.380644 -3.98429e-006 -1.802e-007 -0.0303115 16.3743 66.978 -18.7543 -8.1365 25.2327 3.48765 
43.4964 84.7966 -2.97462 2.16434 -0.228117 23.935 0.0556651 -1.35735 -0.280101 0.107959 1.28782 -0.565602 0.114821 2.93286 -0.567733 17.1688 7.93375 19.5129 -28.9264 9.09071 24.5684 21.5012 -24.5502 -24.415 71.6013 35.3661 28.8328 -9.87315e-008 9.28793e-008 -3.61156e-006 171.263 85.3506 -171.718 1.30744e-006 1.28815e-007 -3.0029 8.0289 -4.95141 0.697683 -25.4712 -5.83657 1.26629 -108.028 24.2983 6.83057 -1.61681e-005 -5.67665e-006 3.51474e-006 -11.9047 22.514 3.17559 1.18805e-005 -1.96975e-006 3.00002 -8.02886 -4.95142 -0.697668 173.264 5.37729 3.12593 180 7.01525e-015 178.83 176.972 21.8683 179.752 -7.92036e-007 2.66559e-006 0.630595 -27.9491 75.7663 29.5318 8.17175 26.0336 -2.39837 -174.947 8.33004 -0.33627 4.54188e-006 -4.6773e-006 -0.971578 -2.62003 -12.8445 0.383496 -3.98429e-006 -1.802e-007 -0.030779 16.3681 66.9791 -18.7551 -8.1365 25.2327 3.48765 
43.5349 84.7816 -2.97681 2.15763 -0.206304 24.0965 0.0506484 -1.36696 -0.273079 0.0980028 1.26863 -0.551005 0.104682 2.91367 -0.55296 17.1602 7.90611 19.484 -28.9109 9.0879 24.5313 21.4177 -24.6609 -24.5841 71.3531 35.5851 29.7533 -9.87315e-008 9.28793e-008 -3.61156e-006 170.3 85.3183 -170.561 1.30744e-006 1.28815e-007 -3.0029 8.0289 -4.95141 0.697683 -25.5496 -5.88146 1.32487 -107.901 24.2372 6.59309 -1.61681e-005 -5.67665e-006 3.51474e-006 -11.854 22.1409 3.11293 1.18805e-005 -1.96975e-006 3.00002 -8.02886 -4.95142 -0.697668 173.268 5.36395 3.11823 180 7.01524e-015 178.829 176.994 21.93 179.75 -7.92036e-007 2.66559e-006 0.636265 -28.0365 75.8116 29.624 8.17229 26.0494 -2.3771 -174.976 8.38087 -0.307672 4.54188e-006 -4.6773e-006 -0.970741 -2.60624 -12.8748 0.386416 -3.98429e-006 -1.802e-007 -0.0311897 16.3608 66.9787 -18.7551 -8.1365 25.2327 3.48765 
43.5769 84.7838 -2.96103 2.1508 -0.182427 24.2597 0.0452705 -1.37698 -0.266046 0.0872924 1.24862 -0.536371 0.0937877 2.89366 -0.538138 17.1506 7.88042 19.4536 -28.8939 9.08213 24.4918 21.3392 -24.7694 -24.7493 71.0936 35.7977 30.6918 -9.87315e-008 9.28793e-008 -3.61156e-006 169.344 85.283 -169.406 1.30744e-006 1.28815e-007 -3.0029 8.0289 -4.95141 0.697683 -25.632 -5.9249 1.38207 -107.769 24.1768 6.35663 -1.61681e-005 -5.67665e-006 3.51474e-006 -11.8031 21.7799 3.05264 1.18805e-005 -1.96975e-006 3.00002 -8.02886 -4.95142 -0.697668 173.271 5.35258 3.11024 180 7.01524e-015 178.828 177.016 21.993 179.747 -7.92036e-007 2.66559e-006 0.642001 -28.1246 75.8568 29.7169 8.17285 26.0658 -2.35516 -175.006 8.43192 -0.277779 4.54188e-006 -4.6773e-006 -0.969872 -2.59218 -12.9018 0.389398 -3.98429e-006 -1.802e-007 -0.031542 16.3523 66.9772 -18.7541 -8.1365 25.2327 3.48765 
43.6035 84.7824 -2.92748 2.14381 -0.157061 24.4249 0.0395856 -1.38729 -0.259036 0.0759433 1.22802 -0.521767 0.0822548 2.87307 -0.523334 17.1398 7.85555 19.422 -28.875 9.07447 24.4503 21.2654 -24.8759 -24.9108 70.8242 36.0039 31.6432 -9.87315e-008 9.28793e-008 -3.61156e-006 168.399 85.2457 -168.261 1.30744e-006 1.28815e-007 -3.0029 8.0289 -4.95141 0.697683 -25.7177 -5.96787 1.43887 -107.635 24.1179 6.12019 -1.61681e-005 -5.67665e-006 3.51474e-006 -11.7504 21.4279 2.99422 1.18805e-005 -1.96975e-006 3.00002 -8.02886 -4.95142 -0.697668 173.275 5.34221 3.10212 180 7.01524e-015 178.827 177.039 22.0565 179.744 -7.92036e-007 2.66559e-006 0.647757 -28.213 75.9018 29.8099 8.17341 26.0826 -2.33263 -175.038 8.48286 -0.246826 4.54188e-006 -4.6773e-006 -0.968973 -2.57783 -12.9258 0.392438 -3.98429e-006 -1.802e-007 -0.0318343 16.3428 66.9748 -18.7525 -8.1365 25.2327 3.48765 
43.6313 84.7443 -2.9214 2.13663 -0.130779 24.5922 0.0336482 -1.3978 -0.252079 0.0640705 1.20705 -0.50726 0.0701991 2.85209 -0.508619 17.1276 7.83039 19.3895 -28.8535 9.06601 24.4074 21.1958 -24.9807 -25.0692 70.5465 36.2036 32.6023 -9.87315e-008 9.28793e-008 -3.61156e-006 167.47 85.2075 -167.129 1.30744e-006 1.28815e-007 -3.0029 8.0289 -4.95141 0.697683 -25.8056 -6.01133 1.49623 -107.499 24.0611 5.88276 -1.61681e-005 -5.67665e-006 3.51474e-006 -11.6947 21.0823 2.93717 1.18805e-005 -1.96975e-006 3.00002 -8.02886 -4.95142 -0.697668 173.278 5.33187 3.09403 180 7.01524e-015 178.826 177.061 22.1196 179.742 -7.92036e-007 2.66559e-006 0.653484 -28.3009 75.9463 29.9025 8.17398 26.0998 -2.30959 -175.07 8.5334 -0.215044 4.54188e-006 -4.6773e-006 -0.968049 -2.56321 -12.9473 0.395531 -3.98429e-006 -1.802e-007 -0.0320648 16.3324 66.9716 -18.7504 -8.1365 25.2327 3.48765 
43.7044 84.7513 -2.85452 2.12924 -0.10415 24.7616 0.0275126 -1.40838 -0.245209 0.0517885 1.18592 -0.492916 0.0577359 2.83096 -0.494061 17.1141 7.80382 19.3566 -28.8291 9.05781 24.3634 21.1301 -25.084 -25.2249 70.2623 36.3974 33.564 -9.87315e-008 9.28793e-008 -3.61156e-006 166.56 85.1694 -166.015 1.30744e-006 1.28815e-007 -3.0029 8.0289 -4.95141 0.697683 -25.8951 -6.05624 1.55514 -107.363 24.0069 5.64333 -1.61681e-005 -5.67665e-006 3.51474e-006 -11.6346 20.7401 2.88099 1.18805e-005 -1.96975e-006 3.00002 -8.02886 -4.95142 -0.697668 173.281 5.3206 3.08612 180 7.01523e-015 178.825 177.083 22.1813 179.739 -7.92036e-007 2.66559e-006 0.659135 -28.3879 75.9899 29.994 8.17453 26.1173 -2.28611 -175.102 8.58324 -0.182667 4.54188e-006 -4.6773e-006 -0.967101 -2.54832 -12.9666 0.398672 -3.98429e-006 -1.802e-007 -0.0322318 16.3212 66.9679 -18.7479 -8.1365 25.2327 3.48765 
43.7376 84.7649 -2.8471 2.12163 -0.0777414 24.9333 0.0212329 -1.41893 -0.238458 0.0392114 1.16485 -0.478803 0.0449804 2.8099 -0.479727 17.099 7.77472 19.3234 -28.8014 9.05094 24.3188 21.0677 -25.1862 -25.3784 69.9733 36.5855 34.5233 -9.87315e-008 9.28793e-008 -3.61156e-006 165.67 85.1326 -164.923 1.30744e-006 1.28815e-007 -3.0029 8.0289 -4.95141 0.697683 -25.9852 -6.10356 1.61656 -107.229 23.956 5.40091 -1.61681e-005 -5.67665e-006 3.51474e-006 -11.5686 20.3985 2.82521 1.18805e-005 -1.96975e-006 3.00002 -8.02886 -4.95142 -0.697668 173.284 5.30744 3.07856 180 7.01523e-015 178.824 177.105 22.2408 179.737 -7.92036e-007 2.66559e-006 0.664661 -28.4733 76.0324 30.0838 8.17507 26.135 -2.26227 -175.135 8.63207 -0.14993 4.54188e-006 -4.6773e-006 -0.966135 -2.53315 -12.9841 0.401857 -3.98429e-006 -1.802e-007 -0.0323338 16.3095 66.9638 -18.7451 -8.1365 25.2327 3.48765 
